<?xml version="1.0" standalone="no"?>
<!DOCTYPE svg PUBLIC "-//W3C//DTD SVG 20010904//EN"
 "http://www.w3.org/TR/2001/REC-SVG-20010904/DTD/svg10.dtd">
<svg version="1.0" xmlns="http://www.w3.org/2000/svg"
 width="500.000000pt" height="500.000000pt" viewBox="0 0 500.000000 500.000000"
 preserveAspectRatio="xMidYMid meet">
<metadata>
Created by potrace 1.14, written by Peter Selinger 2001-2017
</metadata>
<g transform="translate(0.000000,500.000000) scale(0.100000,-0.100000)"
fill="#00376e" stroke="none">
<path d="M2270 4663 c-220 -29 -498 -107 -683 -193 -256 -118 -424 -235 -622
-434 -323 -323 -493 -649 -601 -1151 -27 -122 -29 -144 -29 -370 0 -226 2
-248 29 -370 49 -230 95 -374 166 -528 118 -255 235 -423 434 -623 322 -322
648 -492 1151 -600 122 -27 144 -29 370 -29 226 0 248 2 370 29 230 49 374 95
528 166 255 118 423 235 623 434 322 322 496 657 602 1155 24 116 26 145 26
366 0 226 -1 248 -28 370 -49 230 -95 374 -166 528 -118 255 -235 423 -434
623 -321 320 -660 497 -1150 600 -104 22 -152 26 -336 29 -118 2 -231 1 -250
-2z m495 -932 c258 -53 468 -197 559 -383 61 -124 69 -224 25 -310 -69 -135
-243 -170 -339 -69 -19 20 -60 82 -90 137 -71 127 -171 233 -245 257 -85 29
-208 39 -307 27 -102 -12 -151 -29 -225 -77 -86 -57 -126 -125 -125 -217 1
-158 118 -234 527 -340 414 -107 585 -175 722 -285 74 -60 152 -174 182 -264
45 -134 47 -325 5 -467 -25 -87 -90 -202 -151 -270 -181 -200 -451 -299 -813
-300 -454 0 -764 160 -925 478 -120 236 -71 435 116 473 124 26 203 -34 280
-213 80 -184 146 -263 264 -319 203 -96 532 -46 670 102 63 67 88 127 88 209
0 97 -17 145 -74 205 -85 90 -169 124 -511 210 -399 100 -589 191 -716 343
-93 112 -134 233 -134 397 0 143 26 234 97 345 156 244 475 369 900 354 72 -2
171 -13 220 -23z"/>
</g>
</svg>
